<?xml version="1.0" standalone="no"?>
<!DOCTYPE svg PUBLIC "-//W3C//DTD SVG 20010904//EN"
 "http://www.w3.org/TR/2001/REC-SVG-20010904/DTD/svg10.dtd">
<svg version="1.0" xmlns="http://www.w3.org/2000/svg"
 width="950.000000pt" height="950.000000pt" viewBox="0 0 950.000000 950.000000"
 preserveAspectRatio="xMidYMid meet">
<metadata>
Created by potrace 1.14, written by Peter Selinger 2001-2017
</metadata>
<g transform="translate(0.000000,950.000000) scale(0.100000,-0.100000)"
fill="#000000" stroke="none">
<path d="M0 4750 l0 -4750 4750 0 4750 0 0 4750 0 4750 -4750 0 -4750 0 0
-4750z m4842 2128 l3 -593 218 -3 217 -2 0 455 0 455 80 0 80 0 0 -455 0 -455
215 0 215 0 2 233 3 232 78 3 77 3 0 -236 0 -235 135 0 135 0 2 -327 3 -328
268 -3 267 -2 0 -75 0 -75 -267 -2 -268 -3 -3 -197 -2 -198 410 0 410 0 0 -80
0 -80 -410 0 -410 0 0 -190 0 -190 325 0 325 0 0 -80 0 -80 -325 0 -325 0 2
-187 3 -188 268 -3 267 -2 0 -75 0 -75 -270 0 -270 0 0 -100 0 -100 -75 0 -75
0 0 1245 0 1245 -1245 0 -1245 0 0 75 0 75 215 0 215 0 0 360 0 360 -465 0
-465 0 0 75 0 75 545 0 545 0 0 -435 0 -435 218 2 217 3 3 593 2 592 75 0 75
0 2 -592z m-1962 197 l0 -75 -185 0 -185 0 0 75 0 75 185 0 185 0 0 -75z
m-1790 -980 l0 -75 -150 0 -150 0 0 75 0 75 150 0 150 0 0 -75z m1285 -198
l171 -272 337 -3 337 -2 0 115 0 115 80 0 80 0 0 -1245 0 -1245 1245 0 1245 0
0 -75 0 -75 -215 0 -215 0 0 -360 0 -360 465 0 465 0 0 -75 0 -75 -545 0 -545
0 0 435 0 435 -217 -2 -218 -3 -3 -592 -2 -593 -75 0 -75 0 -2 593 -3 592
-217 3 -218 2 0 -455 0 -455 -80 0 -80 0 0 455 0 455 -217 -2 -218 -3 -3 -232
-2 -233 -75 0 -75 0 -2 233 -3 232 -137 3 -138 3 0 314 0 315 -337 -2 -337 -3
-171 -272 -170 -272 -387 -1 -388 0 0 75 0 75 339 0 c284 0 340 2 351 15 6 8
85 130 174 272 l162 258 382 3 382 2 0 190 0 190 -755 0 -755 0 0 80 0 80 755
0 755 0 0 190 0 190 -1135 0 -1135 0 0 80 0 80 1135 0 1135 0 0 200 0 200
-382 2 -382 3 -113 180 c-62 99 -140 222 -173 273 l-59 92 -341 0 -340 0 0 75
0 75 388 0 387 -1 170 -272z m3063 -1149 l2 -668 -675 0 -675 0 0 670 0 670
673 -2 672 -3 3 -667z m2132 242 l0 -80 -115 0 -115 0 0 80 0 80 115 0 115 0
0 -80z m-6480 -1625 l0 -75 -150 0 -150 0 0 75 0 75 150 0 150 0 0 -75z m5930
-950 l0 -75 -185 0 -185 0 0 75 0 75 185 0 185 0 0 -75z"/>
<path d="M4250 4745 l0 -515 515 0 515 0 0 515 0 515 -515 0 -515 0 0 -515z"/>
</g>
</svg>
