
        <svg xmlns="http://www.w3.org/2000/svg" xmlns:xlink="http://www.w3.org/1999/xlink" version="1.1" width="3423.658222727972" 
        height="969.6217837759266" viewBox="0 0 3423.658222727972 969.6217837759266">
			
			<g transform="scale(21.182911136398584) translate(10, 10)">
				<defs id="SvgjsDefs1343"><linearGradient id="SvgjsLinearGradient1348"><stop id="SvgjsStop1349" stop-color="#8f5e25" offset="0"></stop><stop id="SvgjsStop1350" stop-color="#fbf4a1" offset="0.5"></stop><stop id="SvgjsStop1351" stop-color="#8f5e25" offset="1"></stop></linearGradient></defs><g id="SvgjsG1344" featureKey="G09qjj-0" transform="matrix(0.3679129461914344,0,0,0.3679129461914344,-2.3914341502443235,-5.508760386134978)" fill="#ffe3b0"><path xmlns="http://www.w3.org/2000/svg" d="M48.82959,41.38037V58.61914H66.06885V41.38037ZM64.06885,56.61914H50.82959V43.38037H64.06885Z"></path><polygon xmlns="http://www.w3.org/2000/svg" points="77.214 40.765 84.061 40.765 84.061 38.765 77.214 38.765 77.214 30.235 73.688 30.235 73.688 24.298 71.688 24.298 71.688 30.235 66.069 30.235 66.069 18.612 64.069 18.612 64.069 30.235 58.449 30.235 58.449 14.973 56.449 14.973 56.449 30.235 50.83 30.235 50.83 19.09 36.808 19.09 36.808 21.09 48.83 21.09 48.83 30.235 43.29 30.235 43.29 32.235 75.214 32.235 75.214 64.159 77.214 64.159 77.214 61.634 84.061 61.634 84.061 59.634 77.214 59.634 77.214 54.81 85.539 54.81 85.539 52.81 77.214 52.81 77.214 47.873 87.643 47.873 87.643 45.873 77.214 45.873 77.214 40.765"></polygon><rect xmlns="http://www.w3.org/2000/svg" x="28.44922" y="19.09033" width="4.77637" height="2"></rect><rect xmlns="http://www.w3.org/2000/svg" x="81.67236" y="78.91016" width="4.77686" height="2"></rect><rect xmlns="http://www.w3.org/2000/svg" x="6.5" y="31.71387" width="3.8667" height="2"></rect><polygon xmlns="http://www.w3.org/2000/svg" points="27.897 59.634 23.461 66.685 14.688 66.685 14.688 68.685 24.566 68.685 29.001 61.634 37.684 61.634 37.684 69.765 41.21 69.765 41.21 75.702 43.21 75.702 43.21 69.765 48.83 69.765 48.83 81.389 50.83 81.389 50.83 69.765 56.449 69.765 56.449 85.027 58.449 85.027 58.449 69.765 64.069 69.765 64.069 80.91 78.09 80.91 78.09 78.91 66.069 78.91 66.069 69.765 71.608 69.765 71.608 67.765 39.684 67.765 39.684 35.841 37.684 35.841 37.684 38.765 29.001 38.765 24.566 31.714 14.688 31.714 14.688 33.714 23.461 33.714 27.897 40.765 37.684 40.765 37.684 45.873 8.433 45.873 8.433 47.873 37.684 47.873 37.684 52.81 18.214 52.81 18.214 54.81 37.684 54.81 37.684 59.634 27.897 59.634"></polygon><rect xmlns="http://www.w3.org/2000/svg" x="6.5" y="66.68457" width="3.8667" height="2"></rect><rect xmlns="http://www.w3.org/2000/svg" x="90.4292" y="45.87256" width="3.0708" height="2"></rect></g><g id="SvgjsG1345" featureKey="0yvIkK-0" transform="matrix(0.5138378318604437,0,0,0.5138378318604437,51.928062894652776,6.6157925287722925)" fill="url(#SvgjsLinearGradient1348)"><path d="M7.7 5.84 l0 10.14 q0 2.3 -0.98 3.34 t-2.9 1.04 q-1.46 0 -2.41 -0.76 t-1.27 -2.14 l1.32 -0.24 q0.48 1.94 2.36 1.94 q1.32 0 1.94 -0.8 t0.62 -2.12 l0 -10.4 l1.32 0 z M18.48 14.6 q0 -1.26 -0.94 -2.13 t-2.28 -0.87 q-1.3 0 -2.24 0.87 t-1.1 2.13 l6.56 0 z M15.34 10.52 q1.92 0 3.12 1.24 t1.22 3.2 l0 0.72 l-7.76 0 q0.08 1.56 1.03 2.51 t2.47 0.97 q0.94 0 1.79 -0.45 t1.31 -1.19 l0.88 0.74 q-1.3 1.98 -4 1.98 q-2.12 -0.02 -3.39 -1.38 t-1.29 -3.5 q0 -2.08 1.31 -3.45 t3.31 -1.39 z M25.8 4.640000000000001 q0.84 0 1.38 0.24 l-0.24 1.04 q-0.4 -0.2 -1.08 -0.2 q-1.62 0 -1.62 2.38 l0 2.66 l2.16 0 l0 1.08 l-2.16 0 l0 8.16 l-1.2 0 l0 -8.16 l-1.92 0 l0 -1.08 l1.92 0 l0 -3.1 q0 -1.36 0.76 -2.18 t2 -0.84 z M31.72 4.640000000000001 q0.84 0 1.38 0.24 l-0.24 1.04 q-0.4 -0.2 -1.08 -0.2 q-1.62 0 -1.62 2.38 l0 2.66 l2.16 0 l0 1.08 l-2.16 0 l0 8.16 l-1.2 0 l0 -8.16 l-1.92 0 l0 -1.08 l1.92 0 l0 -3.1 q0 -1.36 0.76 -2.18 t2 -0.84 z M41.06 5.84 l0 6.24 l7.92 0 l0 -6.24 l1.32 0 l0 14.16 l-1.32 0 l0 -6.72 l-7.92 0 l0 6.72 l-1.32 0 l0 -14.16 l1.32 0 z M61.08 14.6 q0 -1.26 -0.94 -2.13 t-2.28 -0.87 q-1.3 0 -2.24 0.87 t-1.1 2.13 l6.56 0 z M57.940000000000005 10.52 q1.92 0 3.12 1.24 t1.22 3.2 l0 0.72 l-7.76 0 q0.08 1.56 1.03 2.51 t2.47 0.97 q0.94 0 1.79 -0.45 t1.31 -1.19 l0.88 0.74 q-1.3 1.98 -4 1.98 q-2.12 -0.02 -3.39 -1.38 t-1.29 -3.5 q0 -2.08 1.31 -3.45 t3.31 -1.39 z M69.36 10.52 q1.02 0 1.75 0.52 t1.03 1.48 q0.4 -0.96 1.26 -1.48 t1.9 -0.52 q3.5 0 3.5 3.92 l0 5.56 l-1.2 0 l0 -5.5 q0 -2.88 -2.32 -2.9 q-1.4 0 -2.1 0.92 t-0.7 2.38 l0 5.1 l-1.2 0 l0 -5.62 q0 -1.26 -0.48 -2.01 t-1.46 -0.77 q-1.44 0 -2.3 1.01 t-0.88 2.81 l0 4.58 l-1.2 0 l0 -6.74 q-0.02 -0.68 -0.1 -2.5 l1.2 0 q0.04 1.48 0.08 1.62 l0.06 0 q0.4 -0.86 1.28 -1.36 t1.88 -0.5 z M86.4 10.52 q1.02 0 1.75 0.52 t1.03 1.48 q0.4 -0.96 1.26 -1.48 t1.9 -0.52 q3.5 0 3.5 3.92 l0 5.56 l-1.2 0 l0 -5.5 q0 -2.88 -2.32 -2.9 q-1.4 0 -2.1 0.92 t-0.7 2.38 l0 5.1 l-1.2 0 l0 -5.62 q0 -1.26 -0.48 -2.01 t-1.46 -0.77 q-1.44 0 -2.3 1.01 t-0.88 2.81 l0 4.58 l-1.2 0 l0 -6.74 q-0.02 -0.68 -0.1 -2.5 l1.2 0 q0.04 1.48 0.08 1.62 l0.06 0 q0.4 -0.86 1.28 -1.36 t1.88 -0.5 z M106.28 14.6 q0 -1.26 -0.94 -2.13 t-2.28 -0.87 q-1.3 0 -2.24 0.87 t-1.1 2.13 l6.56 0 z M103.14 10.52 q1.92 0 3.12 1.24 t1.22 3.2 l0 0.72 l-7.76 0 q0.08 1.56 1.03 2.51 t2.47 0.97 q0.94 0 1.79 -0.45 t1.31 -1.19 l0.88 0.74 q-1.3 1.98 -4 1.98 q-2.12 -0.02 -3.39 -1.38 t-1.29 -3.5 q0 -2.08 1.31 -3.45 t3.31 -1.39 z M114.56 10.52 q1.8 0 2.65 0.97 t0.87 3.05 l0 5.46 l-1.2 0 l0 -5.4 q0 -1.54 -0.57 -2.27 t-1.75 -0.73 q-1.46 0 -2.32 1.01 t-0.88 2.81 l0 4.58 l-1.2 0 l0 -6.74 q-0.02 -0.58 -0.1 -2.5 l1.2 0 q0.04 1.58 0.08 1.62 l0.06 0 q0.4 -0.84 1.27 -1.35 t1.89 -0.51 z M130.86 5.48 q2.46 0 3.86 1.78 l-1.14 0.82 q-1.04 -1.4 -2.76 -1.4 q-1.4 0 -2.27 0.72 t-0.91 1.96 q0 1.08 0.66 1.75 t2.3 1.13 q2.16 0.64 2.88 1.13 t1.09 1.21 t0.37 1.8 q0 1.72 -1.23 2.83 t-3.17 1.15 q-3.06 0 -4.6 -2.14 l1.26 -0.84 q1.06 1.76 3.24 1.78 q1.42 0 2.3 -0.79 t0.88 -1.99 q0 -0.7 -0.25 -1.15 t-0.76 -0.78 t-1.3 -0.6 t-1.85 -0.63 q-1.6 -0.52 -2.37 -1.46 t-0.77 -2.4 q0 -1.72 1.29 -2.8 t3.25 -1.08 z M138.38 17.44 q0 0.76 0.61 1.24 t1.51 0.48 q1.62 0 2.41 -0.85 t0.79 -2.31 l0 -0.64 l-1.44 0 q-1.84 0 -2.86 0.56 t-1.02 1.52 z M141.1 10.52 q1.86 0 2.76 0.86 t0.92 2.4 l0 2.74 q0 2.24 0.18 3.48 l-1.12 0 q-0.12 -0.62 -0.12 -1.5 l-0.04 0 q-1 1.74 -3.22 1.74 q-1.5 0 -2.38 -0.74 t-0.9 -2 q0 -1.54 1.33 -2.32 t3.71 -0.78 l1.48 0 l0 -0.54 q0 -1.14 -0.7 -1.7 t-1.9 -0.56 q-1.6 0 -2.82 1.04 l-0.7 -0.82 q0.66 -0.64 1.63 -0.97 t1.89 -0.33 z M140.66 5.84 l2.08 2.88 l-1 0 l-2.68 -2.88 l1.6 0 z M152.1 10.52 q0.34 0 0.7 0.1 l-0.14 1.18 q-0.22 -0.08 -0.48 -0.08 q-1.46 0 -2.23 0.9 t-0.77 2.34 l0 5.04 l-1.2 0 l0 -6.74 q0 -0.2 -0.1 -2.5 l1.2 0 q0.04 1.38 0.08 1.62 q1.04 -1.86 2.94 -1.86 z M154.84 4.880000000000001 l1.2 0 l0 15.12 l-1.2 0 l0 -15.12 z M163.64000000000001 14.719999999999999 l0 1.08 l-4.94 0 l0 -1.08 l4.94 0 z M170.48 5.48 q2.46 0 3.86 1.78 l-1.14 0.82 q-1.04 -1.4 -2.76 -1.4 q-1.4 0 -2.27 0.72 t-0.91 1.96 q0 1.08 0.66 1.75 t2.3 1.13 q2.16 0.64 2.88 1.13 t1.09 1.21 t0.37 1.8 q0 1.72 -1.23 2.83 t-3.17 1.15 q-3.06 0 -4.6 -2.14 l1.26 -0.84 q1.06 1.76 3.24 1.78 q1.42 0 2.3 -0.79 t0.88 -1.99 q0 -0.7 -0.25 -1.15 t-0.76 -0.78 t-1.3 -0.6 t-1.85 -0.63 q-1.6 -0.52 -2.37 -1.46 t-0.77 -2.4 q0 -1.72 1.29 -2.8 t3.25 -1.08 z"></path></g>
			</g>
		</svg>
	