<svg height="43" viewBox="0 0 150 43" width="150" xmlns="http://www.w3.org/2000/svg"><path d="m87.5505847 5.54280286v3.87352794h-5.0212844v22.0958148h-4.9732109v-22.0958148h-4.6667418l-.1093674-.08533058v22.18114538h-4.9708072v-25.96934274h9.7469164v-5.53927716h4.9732109v5.53927716zm29.5532273 25.96934274v-31.50741806h4.975615v31.50741806zm-96.5016834-6.5776662c1.6477217-1.6681529 2.6212115-3.9889046 2.5238625-6.5692534 0-2.5731379-.9999303-4.7953387-2.6200096-6.3913812-1.622483-1.6248867-3.8939592-2.57193607-6.4418585-2.57193607-5.48519435 0-9.08830845 4.18480427-9.08830845 9.06066617v.0468718c.01802758 4.7893294 3.38317752 9.1159508 9.10152875 9.1159508 2.5515047 0 4.87466-1.0203616 6.5247853-2.6909181zm2.2246045-15.15879866v-9.77215504h4.9732109v31.5086199h-4.7652927v-4.5129064c-1.4458126 2.6416427-4.3855115 5.2664597-9.734898 5.2664597-8.15207574 0-13.2995533-6.3144635-13.2995533-13.7778853 0-8.0799654 5.84214065-13.72380258 13.2202319-13.72380258 5.3241479 0 8.5330587 2.95291907 9.6063012 5.01166972zm85.4952399 12.71065206c.604525-1.2006374.896572-2.5178533.92782-3.8603077.054082-1.34606-.205515-2.69212-.752352-3.8951611-1.246307-2.9733503-4.154758-5.32895527-8.310718-5.32895527-5.4587542 0-8.9849506 4.31340107-8.9849506 9.16402437v.0504773c.022835 3.8903536 2.7786524 9.0342257 9.0762906 9.0342257 3.97328 0 6.763951-2.2137879 8.04391-5.1643033zm.865324-12.3933665v-4.55016344h4.972009v25.96934274h-4.972009v-4.5129064c-1.820787 3.4564897-5.520048 5.2916983-9.6327417 5.2916983-8.3611958 0-13.3259938-6.5247854-13.3259938-13.7754816 0-7.9213226 5.7640212-13.75144488 13.3259938-13.75144488 5.1390647 0 8.4525357 2.84835905 9.6327417 5.32895528zm-51.6634644 14.9484768c1.5491708-1.6176757 2.4769907-3.8579041 2.5310735-6.3865739 0-2.063558-.6586079-4.3674839-2.1020169-6.1450041-1.4145648-1.8039608-3.6596005-3.0815159-6.8324562-3.0815159-4.8902839 0-8.9693264 3.708876-8.9693264 9.0342257v.0468718c.022835 4.8662471 3.4829302 9.1159508 9.0089871 9.1159508 2.6200096 0 4.792935-.9686825 6.3637389-2.5839544zm2.4649723-15.1323582v-4.36628204h4.9720091v22.94190964c0 4.5657874-1.1621786 7.4790458-3.0935343 9.6615859-2.355605 2.7630284-6.4514732 4.7148154-10.939141 4.7148154-7.3540544 0-11.6109691-4.3001809-12.8873224-8.6268022h5.7459935c.5937086 1.1621785 1.5587856 2.2113842 2.8735977 3.0214239 1.5768131 1.0179578 3.3399113 1.3580783 4.4996862 1.3580783 4.314603 0 8.8022708-3.1680483 8.8022708-8.9933632v-2.7113493c-1.5275377 2.9433043-4.6775584 5.3565976-9.3659334 5.3565976-7.7710927 0-13.4173335-5.8950216-13.4173335-13.6444812 0-8.1328463 5.8938197-13.8331699 13.4173335-13.8331699 4.3710894 0 7.9501667 2.27147621 9.3923738 5.1210371zm-29.204694 21.6030607v-25.96934274h4.9744127v25.96934274zm94.1951141-.0001201v-25.96934282h4.974412v25.96934282zm19.357063-19.3104322c-.02644-2.0311084-1.258326-3.52860008-3.768968-3.50696697-2.443339 0-3.785794 1.60806097-3.7245 3.35433337.0649 2.0287047 1.958998 2.9901761 4.725632 3.78339 3.973281 1.0936737 8.301104 2.2342192 8.429701 7.8167626.108165 5.0789727-4.08385 8.516233-9.27219 8.516233-4.098272 0-9.179648-2.3495958-9.445255-8.2722597h4.945569c.183881 3.163241 2.717358 4.210043 4.550163 4.210043 2.430119 0 4.288163-1.7054099 4.2473-3.8927574-.040862-2.5635231-1.977025-3.4480768-6.61252-4.9323483-3.611527-1.0984811-6.476711-2.8303315-6.540409-6.7555385 0-4.91432077 4.026162-7.88526742 8.748188-7.88526742 3.573068.02043126 8.241012 1.76790555 8.608775 7.56437632zm-52.6876717-8.91476292v-3.28703038h17.6261747v3.28703038z" fill="#fff" fill-rule="evenodd"/></svg>